<svg width="1123" height="61" viewBox="0 0 1123 61" fill="none" xmlns="http://www.w3.org/2000/svg">
<rect x="0.5" y="3.5" width="1122" height="54" rx="15.5" fill="white" stroke="black"/>
<path d="M120.356 43.252C118.676 43.252 117.164 42.964 115.82 42.388C114.476 41.788 113.42 40.948 112.652 39.868C111.884 38.788 111.5 37.528 111.5 36.088H115.892C115.988 37.168 116.408 38.056 117.152 38.752C117.92 39.448 118.988 39.796 120.356 39.796C121.772 39.796 122.876 39.46 123.668 38.788C124.46 38.092 124.856 37.204 124.856 36.124C124.856 35.284 124.604 34.6 124.1 34.072C123.62 33.544 123.008 33.136 122.264 32.848C121.544 32.56 120.536 32.248 119.24 31.912C117.608 31.48 116.276 31.048 115.244 30.616C114.236 30.16 113.372 29.464 112.652 28.528C111.932 27.592 111.572 26.344 111.572 24.784C111.572 23.344 111.932 22.084 112.652 21.004C113.372 19.924 114.38 19.096 115.676 18.52C116.972 17.944 118.472 17.656 120.176 17.656C122.6 17.656 124.58 18.268 126.116 19.492C127.676 20.692 128.54 22.348 128.708 24.46H124.172C124.1 23.548 123.668 22.768 122.876 22.12C122.084 21.472 121.04 21.148 119.744 21.148C118.568 21.148 117.608 21.448 116.864 22.048C116.12 22.648 115.748 23.512 115.748 24.64C115.748 25.408 115.976 26.044 116.432 26.548C116.912 27.028 117.512 27.412 118.232 27.7C118.952 27.988 119.936 28.3 121.184 28.636C122.84 29.092 124.184 29.548 125.216 30.004C126.272 30.46 127.16 31.168 127.88 32.128C128.624 33.064 128.996 34.324 128.996 35.908C128.996 37.18 128.648 38.38 127.952 39.508C127.28 40.636 126.284 41.548 124.964 42.244C123.668 42.916 122.132 43.252 120.356 43.252ZM152.019 32.596C152.019 33.34 151.971 34.012 151.875 34.612H136.719C136.839 36.196 137.427 37.468 138.483 38.428C139.539 39.388 140.835 39.868 142.371 39.868C144.579 39.868 146.139 38.944 147.051 37.096H151.479C150.879 38.92 149.787 40.42 148.203 41.596C146.643 42.748 144.699 43.324 142.371 43.324C140.475 43.324 138.771 42.904 137.259 42.064C135.771 41.2 134.595 40 133.731 38.464C132.891 36.904 132.471 35.104 132.471 33.064C132.471 31.024 132.879 29.236 133.695 27.7C134.535 26.14 135.699 24.94 137.187 24.1C138.699 23.26 140.427 22.84 142.371 22.84C144.243 22.84 145.911 23.248 147.375 24.064C148.839 24.88 149.979 26.032 150.795 27.52C151.611 28.984 152.019 30.676 152.019 32.596ZM147.735 31.3C147.711 29.788 147.171 28.576 146.115 27.664C145.059 26.752 143.751 26.296 142.191 26.296C140.775 26.296 139.563 26.752 138.555 27.664C137.547 28.552 136.947 29.764 136.755 31.3H147.735ZM154.689 32.992C154.689 31 155.097 29.236 155.913 27.7C156.753 26.164 157.881 24.976 159.297 24.136C160.737 23.272 162.321 22.84 164.049 22.84C165.609 22.84 166.965 23.152 168.117 23.776C169.293 24.376 170.229 25.132 170.925 26.044V23.164H175.065V43H170.925V40.048C170.229 40.984 169.281 41.764 168.081 42.388C166.881 43.012 165.513 43.324 163.977 43.324C162.273 43.324 160.713 42.892 159.297 42.028C157.881 41.14 156.753 39.916 155.913 38.356C155.097 36.772 154.689 34.984 154.689 32.992ZM170.925 33.064C170.925 31.696 170.637 30.508 170.061 29.5C169.509 28.492 168.777 27.724 167.865 27.196C166.953 26.668 165.969 26.404 164.913 26.404C163.857 26.404 162.873 26.668 161.961 27.196C161.049 27.7 160.305 28.456 159.729 29.464C159.177 30.448 158.901 31.624 158.901 32.992C158.901 34.36 159.177 35.56 159.729 36.592C160.305 37.624 161.049 38.416 161.961 38.968C162.897 39.496 163.881 39.76 164.913 39.76C165.969 39.76 166.953 39.496 167.865 38.968C168.777 38.44 169.509 37.672 170.061 36.664C170.637 35.632 170.925 34.432 170.925 33.064ZM184.56 26.044C185.16 25.036 185.952 24.256 186.936 23.704C187.944 23.128 189.132 22.84 190.5 22.84V27.088H189.456C187.848 27.088 186.624 27.496 185.784 28.312C184.968 29.128 184.56 30.544 184.56 32.56V43H180.456V23.164H184.56V26.044ZM192.904 33.064C192.904 31.024 193.312 29.236 194.128 27.7C194.968 26.14 196.12 24.94 197.584 24.1C199.048 23.26 200.728 22.84 202.624 22.84C205.024 22.84 207.004 23.416 208.564 24.568C210.148 25.696 211.216 27.316 211.768 29.428H207.34C206.98 28.444 206.404 27.676 205.612 27.124C204.82 26.572 203.824 26.296 202.624 26.296C200.944 26.296 199.6 26.896 198.592 28.096C197.608 29.272 197.116 30.928 197.116 33.064C197.116 35.2 197.608 36.868 198.592 38.068C199.6 39.268 200.944 39.868 202.624 39.868C205 39.868 206.572 38.824 207.34 36.736H211.768C211.192 38.752 210.112 40.36 208.528 41.56C206.944 42.736 204.976 43.324 202.624 43.324C200.728 43.324 199.048 42.904 197.584 42.064C196.12 41.2 194.968 40 194.128 38.464C193.312 36.904 192.904 35.104 192.904 33.064ZM226.118 22.84C227.63 22.84 228.974 23.164 230.15 23.812C231.35 24.46 232.286 25.42 232.958 26.692C233.654 27.964 234.002 29.5 234.002 31.3V43H229.934V31.912C229.934 30.136 229.49 28.78 228.602 27.844C227.714 26.884 226.502 26.404 224.966 26.404C223.43 26.404 222.206 26.884 221.294 27.844C220.406 28.78 219.962 30.136 219.962 31.912V43H215.858V16.36H219.962V25.468C220.658 24.628 221.534 23.98 222.59 23.524C223.67 23.068 224.846 22.84 226.118 22.84ZM240.893 43.252C240.149 43.252 239.525 43 239.021 42.496C238.517 41.992 238.265 41.368 238.265 40.624C238.265 39.88 238.517 39.256 239.021 38.752C239.525 38.248 240.149 37.996 240.893 37.996C241.613 37.996 242.225 38.248 242.729 38.752C243.233 39.256 243.485 39.88 243.485 40.624C243.485 41.368 243.233 41.992 242.729 42.496C242.225 43 241.613 43.252 240.893 43.252ZM249.577 43.252C248.833 43.252 248.209 43 247.705 42.496C247.201 41.992 246.949 41.368 246.949 40.624C246.949 39.88 247.201 39.256 247.705 38.752C248.209 38.248 248.833 37.996 249.577 37.996C250.297 37.996 250.909 38.248 251.413 38.752C251.917 39.256 252.169 39.88 252.169 40.624C252.169 41.368 251.917 41.992 251.413 42.496C250.909 43 250.297 43.252 249.577 43.252ZM258.26 43.252C257.516 43.252 256.892 43 256.388 42.496C255.884 41.992 255.632 41.368 255.632 40.624C255.632 39.88 255.884 39.256 256.388 38.752C256.892 38.248 257.516 37.996 258.26 37.996C258.98 37.996 259.592 38.248 260.096 38.752C260.6 39.256 260.852 39.88 260.852 40.624C260.852 41.368 260.6 41.992 260.096 42.496C259.592 43 258.98 43.252 258.26 43.252Z" fill="black"/>
<mask id="path-3-inside-1_122_8" fill="white">
<path d="M70.8948 45.5561L59.533 34.5189C61.2961 32.3047 62.2499 29.5974 62.2499 26.7499C62.2499 23.3415 60.8805 20.1455 58.4043 17.7357C55.928 15.326 52.6293 14 49.1249 14C45.6206 14 42.3218 15.3302 39.8456 17.7357C37.365 20.1412 36 23.3415 36 26.7499C36 30.1542 37.3694 33.3587 39.8456 35.7642C42.3218 38.1739 45.6162 39.4999 49.1249 39.4999C52.0562 39.4999 54.8387 38.5734 57.118 36.8649L68.4799 47.8979C68.5132 47.9302 68.5527 47.9559 68.5963 47.9734C68.6398 47.991 68.6865 48 68.7336 48C68.7807 48 68.8274 47.991 68.8709 47.9734C68.9145 47.9559 68.954 47.9302 68.9874 47.8979L70.8948 46.0491C70.9282 46.0167 70.9546 45.9783 70.9727 45.936C70.9907 45.8937 71 45.8484 71 45.8026C71 45.7568 70.9907 45.7115 70.9727 45.6692C70.9546 45.6269 70.9282 45.5885 70.8948 45.5561ZM56.0549 33.4819C54.1999 35.2797 51.7412 36.2699 49.1249 36.2699C46.5087 36.2699 44.05 35.2797 42.195 33.4819C40.3444 31.6799 39.325 29.2914 39.325 26.7499C39.325 24.2085 40.3444 21.8157 42.195 20.018C44.05 18.2202 46.5087 17.23 49.1249 17.23C51.7412 17.23 54.2043 18.216 56.0549 20.018C57.9055 21.82 58.9249 24.2085 58.9249 26.7499C58.9249 29.2914 57.9055 31.6842 56.0549 33.4819Z"/>
</mask>
<path d="M70.8948 45.5561L59.533 34.5189C61.2961 32.3047 62.2499 29.5974 62.2499 26.7499C62.2499 23.3415 60.8805 20.1455 58.4043 17.7357C55.928 15.326 52.6293 14 49.1249 14C45.6206 14 42.3218 15.3302 39.8456 17.7357C37.365 20.1412 36 23.3415 36 26.7499C36 30.1542 37.3694 33.3587 39.8456 35.7642C42.3218 38.1739 45.6162 39.4999 49.1249 39.4999C52.0562 39.4999 54.8387 38.5734 57.118 36.8649L68.4799 47.8979C68.5132 47.9302 68.5527 47.9559 68.5963 47.9734C68.6398 47.991 68.6865 48 68.7336 48C68.7807 48 68.8274 47.991 68.8709 47.9734C68.9145 47.9559 68.954 47.9302 68.9874 47.8979L70.8948 46.0491C70.9282 46.0167 70.9546 45.9783 70.9727 45.936C70.9907 45.8937 71 45.8484 71 45.8026C71 45.7568 70.9907 45.7115 70.9727 45.6692C70.9546 45.6269 70.9282 45.5885 70.8948 45.5561ZM56.0549 33.4819C54.1999 35.2797 51.7412 36.2699 49.1249 36.2699C46.5087 36.2699 44.05 35.2797 42.195 33.4819C40.3444 31.6799 39.325 29.2914 39.325 26.7499C39.325 24.2085 40.3444 21.8157 42.195 20.018C44.05 18.2202 46.5087 17.23 49.1249 17.23C51.7412 17.23 54.2043 18.216 56.0549 20.018C57.9055 21.82 58.9249 24.2085 58.9249 26.7499C58.9249 29.2914 57.9055 31.6842 56.0549 33.4819Z" fill="#D9D9D9"/>
<path d="M59.533 34.5189L58.7507 33.896L58.1863 34.6048L58.8362 35.2362L59.533 34.5189ZM39.8456 17.7357L40.5418 18.4536L40.5424 18.453L39.8456 17.7357ZM39.8456 35.7642L40.543 35.0475L40.5424 35.0469L39.8456 35.7642ZM57.118 36.8649L57.8147 36.1475L57.2018 35.5524L56.5183 36.0647L57.118 36.8649ZM68.4799 47.8979L69.1769 47.1808L69.1765 47.1804L68.4799 47.8979ZM68.7336 48V49V48ZM68.9874 47.8979L68.2914 47.1798L68.2904 47.1808L68.9874 47.8979ZM70.8948 46.0491L71.5908 46.7672L71.5914 46.7666L70.8948 46.0491ZM56.0549 33.4819L56.7509 34.2L56.7517 34.1992L56.0549 33.4819ZM42.195 33.4819L41.4973 34.1984L41.499 34.2L42.195 33.4819ZM42.195 20.018L41.499 19.2999L41.4982 19.3007L42.195 20.018ZM71.5916 44.8388L60.2298 33.8016L58.8362 35.2362L70.1981 46.2734L71.5916 44.8388ZM60.3153 35.1418C62.2187 32.7514 63.2499 29.8248 63.2499 26.7499H61.2499C61.2499 29.37 60.3736 31.8579 58.7507 33.896L60.3153 35.1418ZM63.2499 26.7499C63.2499 23.0656 61.7671 19.6129 59.1017 17.0191L57.7069 18.4524C59.994 20.6781 61.2499 23.6174 61.2499 26.7499H63.2499ZM59.1017 17.0191C56.4354 14.4244 52.885 13 49.1249 13V15C52.3736 15 55.4207 16.2276 57.7069 18.4524L59.1017 17.0191ZM49.1249 13C45.3641 13 41.8143 14.4291 39.1488 17.0185L40.5424 18.453C42.8294 16.2314 45.8771 15 49.1249 15V13ZM39.1495 17.0178C36.4776 19.6088 35 23.0668 35 26.7499H37C37 23.6161 38.2524 20.6736 40.5418 18.4536L39.1495 17.0178ZM35 26.7499C35 30.4294 36.4823 33.8911 39.1488 36.4814L40.5424 35.0469C38.2564 32.8262 37 29.879 37 26.7499H35ZM39.1482 36.4808C41.8144 39.0754 45.3603 40.4999 49.1249 40.4999V38.4999C45.8721 38.4999 42.8293 37.2724 40.543 35.0475L39.1482 36.4808ZM49.1249 40.4999C52.2691 40.4999 55.2627 39.5053 57.7178 37.6651L56.5183 36.0647C54.4146 37.6415 51.8433 38.4999 49.1249 38.4999V40.4999ZM56.4214 37.5823L67.7832 48.6153L69.1765 47.1804L57.8147 36.1475L56.4214 37.5823ZM67.7829 48.6149C67.9103 48.7388 68.06 48.8356 68.2228 48.9011L68.9697 47.0458C69.0454 47.0763 69.1161 47.1217 69.1769 47.1808L67.7829 48.6149ZM68.2228 48.9011C68.3856 48.9666 68.559 49 68.7336 49V47C68.8139 47 68.8941 47.0153 68.9697 47.0458L68.2228 48.9011ZM68.7336 49C68.9082 49 69.0816 48.9666 69.2444 48.9011L68.4975 47.0458C68.5732 47.0153 68.6533 47 68.7336 47V49ZM69.2444 48.9011C69.4072 48.8356 69.5569 48.7388 69.6844 48.6149L68.2904 47.1808C68.3512 47.1217 68.4218 47.0763 68.4975 47.0458L69.2444 48.9011ZM69.6833 48.6159L71.5908 46.7672L70.1989 45.331L68.2914 47.1798L69.6833 48.6159ZM71.5914 46.7666C71.719 46.6428 71.8218 46.4941 71.8925 46.3284L70.0529 45.5437C70.0875 45.4625 70.1374 45.3907 70.1983 45.3316L71.5914 46.7666ZM71.8925 46.3284C71.9632 46.1626 72 45.9839 72 45.8026H70C70 45.7129 70.0182 45.6248 70.0529 45.5437L71.8925 46.3284ZM72 45.8026C72 45.6213 71.9632 45.4426 71.8925 45.2768L70.0529 46.0616C70.0182 45.9804 70 45.8923 70 45.8026H72ZM71.8925 45.2768C71.8218 45.1111 71.719 44.9625 71.5914 44.8386L70.1983 46.2736C70.1374 46.2145 70.0875 46.1427 70.0529 46.0616L71.8925 45.2768ZM55.359 32.7638C53.6929 34.3785 51.4847 35.2699 49.1249 35.2699V37.2699C51.9977 37.2699 54.707 36.1808 56.7509 34.2L55.359 32.7638ZM49.1249 35.2699C46.7652 35.2699 44.557 34.3785 42.8909 32.7638L41.499 34.2C43.5429 36.1808 46.2522 37.2699 49.1249 37.2699V35.2699ZM42.8926 32.7655C41.2314 31.1479 40.325 29.0162 40.325 26.7499H38.325C38.325 29.5667 39.4573 32.2119 41.4973 34.1984L42.8926 32.7655ZM40.325 26.7499C40.325 24.483 41.2319 22.3477 42.8918 20.7353L41.4982 19.3007C39.4568 21.2837 38.325 23.9339 38.325 26.7499H40.325ZM42.8909 20.7361C44.557 19.1214 46.7652 18.23 49.1249 18.23V16.23C46.2522 16.23 43.5429 17.3191 41.499 19.2999L42.8909 20.7361ZM49.1249 18.23C51.4864 18.23 53.6975 19.1182 55.3573 20.7344L56.7525 19.3015C54.7111 17.3137 51.996 16.23 49.1249 16.23V18.23ZM55.3573 20.7344C57.0185 22.352 57.9249 24.4837 57.9249 26.7499H59.9249C59.9249 23.9332 58.7926 21.288 56.7525 19.3015L55.3573 20.7344ZM57.9249 26.7499C57.9249 29.0169 57.018 31.1522 55.3581 32.7646L56.7517 34.1992C58.7931 32.2162 59.9249 29.566 59.9249 26.7499H57.9249Z" fill="black" mask="url(#path-3-inside-1_122_8)"/>
</svg>
