<svg width="35" height="34" viewBox="0 0 35 34" fill="none" xmlns="http://www.w3.org/2000/svg">
<path d="M23.1419 20.2075L22.8597 20.5619L23.1846 20.8776L34.4309 31.8025L32.7337 33.4474L21.4664 22.5062L21.1599 22.2086L20.8181 22.4648C18.6267 24.1074 15.9497 24.9999 13.1249 24.9999C9.74416 24.9999 6.57558 23.7231 4.19432 21.4058L4.194 21.4055C1.81288 19.0924 0.5 16.0166 0.5 12.7499C0.5 9.47878 1.8087 6.40743 4.19368 4.09468L4.194 4.09437C6.5756 1.78082 9.74883 0.5 13.1249 0.5C16.5014 0.5 19.6744 1.77682 22.0556 4.09407C24.4372 6.41178 25.7499 9.47941 25.7499 12.7499C25.7499 15.4837 24.8349 18.0813 23.1419 20.2075ZM34.5466 31.9149C34.5464 31.9147 34.5463 31.9146 34.5462 31.9145L34.5465 31.9148L34.6522 31.8059L34.6554 31.8026L34.6555 31.8025L34.6555 31.8026L34.6524 31.8058L34.5466 31.9149ZM34.6557 31.8024L34.6557 31.8023L34.6567 31.8012L34.8948 31.5561L34.6568 31.8013L34.6557 31.8024ZM32.8284 33.5393L32.8282 33.5391L32.8284 33.5393ZM20.4029 19.841L20.4033 19.8406C22.3493 17.9502 23.4249 15.4287 23.4249 12.7499C23.4249 10.0708 22.3491 7.55396 20.4037 5.65975C18.4577 3.76485 15.8686 2.72999 13.1249 2.72999C10.3804 2.72999 7.79644 3.76965 5.847 5.65892L5.84658 5.65933C3.9006 7.54972 2.82499 10.0712 2.82499 12.7499C2.82499 15.429 3.90083 17.9459 5.84616 19.8401L5.847 19.841C7.79644 21.7302 10.3804 22.7699 13.1249 22.7699C15.8694 22.7699 18.4534 21.7302 20.4029 19.841Z" fill="#D9D9D9" stroke="black"/>
</svg>
