<svg width="611" height="162" viewBox="0 0 611 162" fill="none" xmlns="http://www.w3.org/2000/svg">
<g filter="url(#filter0_d_262_172)">
<rect x="13" y="5" width="565" height="116" rx="58" fill="#728C73"/>
</g>
<path d="M141.675 59.44V70.16C141.675 70.9067 141.848 71.4533 142.195 71.8C142.568 72.12 143.181 72.28 144.035 72.28H146.635V77H143.115C138.395 77 136.035 74.7067 136.035 70.12V59.44H133.395V54.84H136.035V49.36H141.675V54.84H146.635V59.44H141.675ZM156.262 58.28C156.982 57.1067 157.916 56.1867 159.062 55.52C160.236 54.8533 161.569 54.52 163.062 54.52V60.4H161.582C159.822 60.4 158.489 60.8133 157.582 61.64C156.702 62.4667 156.262 63.9067 156.262 65.96V77H150.662V54.84H156.262V58.28ZM188.034 54.84L174.314 87.48H168.354L173.154 76.44L164.274 54.84H170.554L176.274 70.32L182.074 54.84H188.034ZM203.424 52.2C202.438 52.2 201.611 51.8933 200.944 51.28C200.304 50.64 199.984 49.8533 199.984 48.92C199.984 47.9867 200.304 47.2133 200.944 46.6C201.611 45.96 202.438 45.64 203.424 45.64C204.411 45.64 205.224 45.96 205.864 46.6C206.531 47.2133 206.864 47.9867 206.864 48.92C206.864 49.8533 206.531 50.64 205.864 51.28C205.224 51.8933 204.411 52.2 203.424 52.2ZM206.184 54.84V77H200.584V54.84H206.184ZM218.237 59.44V70.16C218.237 70.9067 218.41 71.4533 218.757 71.8C219.13 72.12 219.744 72.28 220.597 72.28H223.197V77H219.677C214.957 77 212.597 74.7067 212.597 70.12V59.44H209.957V54.84H212.597V49.36H218.237V54.84H223.197V59.44H218.237ZM242.356 58.08C243.076 57.0133 244.063 56.1467 245.316 55.48C246.596 54.8133 248.049 54.48 249.676 54.48C251.569 54.48 253.276 54.9467 254.796 55.88C256.343 56.8133 257.556 58.1467 258.436 59.88C259.343 61.5867 259.796 63.5733 259.796 65.84C259.796 68.1067 259.343 70.12 258.436 71.88C257.556 73.6133 256.343 74.96 254.796 75.92C253.276 76.88 251.569 77.36 249.676 77.36C248.023 77.36 246.569 77.04 245.316 76.4C244.089 75.7333 243.103 74.88 242.356 73.84V77H236.756V47.4H242.356V58.08ZM254.076 65.84C254.076 64.5067 253.796 63.36 253.236 62.4C252.703 61.4133 251.983 60.6667 251.076 60.16C250.196 59.6533 249.236 59.4 248.196 59.4C247.183 59.4 246.223 59.6667 245.316 60.2C244.436 60.7067 243.716 61.4533 243.156 62.44C242.623 63.4267 242.356 64.5867 242.356 65.92C242.356 67.2533 242.623 68.4133 243.156 69.4C243.716 70.3867 244.436 71.1467 245.316 71.68C246.223 72.1867 247.183 72.44 248.196 72.44C249.236 72.44 250.196 72.1733 251.076 71.64C251.983 71.1067 252.703 70.3467 253.236 69.36C253.796 68.3733 254.076 67.2 254.076 65.84ZM285.065 54.84L271.345 87.48H265.385L270.185 76.44L261.305 54.84H267.585L273.305 70.32L279.105 54.84H285.065ZM318.815 54.84L305.095 87.48H299.135L303.935 76.44L295.055 54.84H301.335L307.055 70.32L312.855 54.84H318.815ZM331.674 77.36C329.541 77.36 327.621 76.8933 325.914 75.96C324.208 75 322.861 73.6533 321.874 71.92C320.914 70.1867 320.434 68.1867 320.434 65.92C320.434 63.6533 320.928 61.6533 321.914 59.92C322.928 58.1867 324.301 56.8533 326.034 55.92C327.768 54.96 329.701 54.48 331.834 54.48C333.968 54.48 335.901 54.96 337.634 55.92C339.368 56.8533 340.728 58.1867 341.714 59.92C342.728 61.6533 343.234 63.6533 343.234 65.92C343.234 68.1867 342.714 70.1867 341.674 71.92C340.661 73.6533 339.274 75 337.514 75.96C335.781 76.8933 333.834 77.36 331.674 77.36ZM331.674 72.48C332.688 72.48 333.634 72.24 334.514 71.76C335.421 71.2533 336.141 70.5067 336.674 69.52C337.208 68.5333 337.474 67.3333 337.474 65.92C337.474 63.8133 336.914 62.2 335.794 61.08C334.701 59.9333 333.354 59.36 331.754 59.36C330.154 59.36 328.808 59.9333 327.714 61.08C326.648 62.2 326.114 63.8133 326.114 65.92C326.114 68.0267 326.634 69.6533 327.674 70.8C328.741 71.92 330.074 72.48 331.674 72.48ZM368.262 54.84V77H362.622V74.2C361.902 75.16 360.955 75.92 359.782 76.48C358.635 77.0133 357.382 77.28 356.022 77.28C354.289 77.28 352.755 76.92 351.422 76.2C350.089 75.4533 349.035 74.3733 348.262 72.96C347.515 71.52 347.142 69.8133 347.142 67.84V54.84H352.742V67.04C352.742 68.8 353.182 70.16 354.062 71.12C354.942 72.0533 356.142 72.52 357.662 72.52C359.209 72.52 360.422 72.0533 361.302 71.12C362.182 70.16 362.622 68.8 362.622 67.04V54.84H368.262ZM379.387 58.28C380.107 57.1067 381.041 56.1867 382.187 55.52C383.361 54.8533 384.694 54.52 386.187 54.52V60.4H384.707C382.947 60.4 381.614 60.8133 380.707 61.64C379.827 62.4667 379.387 63.9067 379.387 65.96V77H373.787V54.84H379.387V58.28ZM398.439 77.36C396.626 77.36 394.999 77.04 393.559 76.4C392.119 75.7333 390.973 74.84 390.119 73.72C389.293 72.6 388.839 71.36 388.759 70H394.399C394.506 70.8533 394.919 71.56 395.639 72.12C396.386 72.68 397.306 72.96 398.399 72.96C399.466 72.96 400.293 72.7467 400.879 72.32C401.493 71.8933 401.799 71.3467 401.799 70.68C401.799 69.96 401.426 69.4267 400.679 69.08C399.959 68.7067 398.799 68.3067 397.199 67.88C395.546 67.48 394.186 67.0667 393.119 66.64C392.079 66.2133 391.173 65.56 390.399 64.68C389.653 63.8 389.279 62.6133 389.279 61.12C389.279 59.8933 389.626 58.7733 390.319 57.76C391.039 56.7467 392.053 55.9467 393.359 55.36C394.693 54.7733 396.253 54.48 398.039 54.48C400.679 54.48 402.786 55.1467 404.359 56.48C405.933 57.7867 406.799 59.56 406.959 61.8H401.599C401.519 60.92 401.146 60.2267 400.479 59.72C399.839 59.1867 398.973 58.92 397.879 58.92C396.866 58.92 396.079 59.1067 395.519 59.48C394.986 59.8533 394.719 60.3733 394.719 61.04C394.719 61.7867 395.093 62.36 395.839 62.76C396.586 63.1333 397.746 63.52 399.319 63.92C400.919 64.32 402.239 64.7333 403.279 65.16C404.319 65.5867 405.213 66.2533 405.959 67.16C406.733 68.04 407.133 69.2133 407.159 70.68C407.159 71.96 406.799 73.1067 406.079 74.12C405.386 75.1333 404.373 75.9333 403.039 76.52C401.733 77.08 400.199 77.36 398.439 77.36ZM432.356 65.44C432.356 66.24 432.303 66.96 432.196 67.6H415.996C416.129 69.2 416.689 70.4533 417.676 71.36C418.663 72.2667 419.876 72.72 421.316 72.72C423.396 72.72 424.876 71.8267 425.756 70.04H431.796C431.156 72.1733 429.929 73.9333 428.116 75.32C426.303 76.68 424.076 77.36 421.436 77.36C419.303 77.36 417.383 76.8933 415.676 75.96C413.996 75 412.676 73.6533 411.716 71.92C410.783 70.1867 410.316 68.1867 410.316 65.92C410.316 63.6267 410.783 61.6133 411.716 59.88C412.649 58.1467 413.956 56.8133 415.636 55.88C417.316 54.9467 419.249 54.48 421.436 54.48C423.543 54.48 425.423 54.9333 427.076 55.84C428.756 56.7467 430.049 58.04 430.956 59.72C431.889 61.3733 432.356 63.28 432.356 65.44ZM426.556 63.84C426.529 62.4 426.009 61.2533 424.996 60.4C423.983 59.52 422.743 59.08 421.276 59.08C419.889 59.08 418.716 59.5067 417.756 60.36C416.823 61.1867 416.249 62.3467 416.036 63.84H426.556ZM442.044 47.4V77H436.444V47.4H442.044ZM457.736 59.44H453.856V77H448.176V59.44H445.656V54.84H448.176V53.72C448.176 51 448.95 49 450.496 47.72C452.043 46.44 454.376 45.84 457.496 45.92V50.64C456.136 50.6133 455.19 50.84 454.656 51.32C454.123 51.8 453.856 52.6667 453.856 53.92V54.84H457.736V59.44Z" fill="white"/>
<defs>
<filter id="filter0_d_262_172" x="0" y="0" width="611" height="162" filterUnits="userSpaceOnUse" color-interpolation-filters="sRGB">
<feFlood flood-opacity="0" result="BackgroundImageFix"/>
<feColorMatrix in="SourceAlpha" type="matrix" values="0 0 0 0 0 0 0 0 0 0 0 0 0 0 0 0 0 0 127 0" result="hardAlpha"/>
<feOffset dx="10" dy="18"/>
<feGaussianBlur stdDeviation="11.5"/>
<feComposite in2="hardAlpha" operator="out"/>
<feColorMatrix type="matrix" values="0 0 0 0 0 0 0 0 0 0 0 0 0 0 0 0 0 0 0.25 0"/>
<feBlend mode="normal" in2="BackgroundImageFix" result="effect1_dropShadow_262_172"/>
<feBlend mode="normal" in="SourceGraphic" in2="effect1_dropShadow_262_172" result="shape"/>
</filter>
</defs>
</svg>
